<svg aria-hidden="true" style="position: absolute; width: 0; height: 0; overflow: hidden;" version="1.1" xmlns="http://www.w3.org/2000/svg" xmlns:xlink="http://www.w3.org/1999/xlink">
<defs>
<symbol id="icon-fb-icon-av" viewBox="0 0 30 32">
<path fill="#fff" style="fill: var(--color1, #fff)" d="M26.722 1h-23.222c-1.781 0-3.167 1.451-3.167 3.167v23.222c0 1.781 1.385 3.167 3.167 3.167h9.038v-10.028h-4.156v-4.75h4.156v-3.563c0-4.090 2.441-6.399 6.135-6.399 1.847 0 3.694 0.33 3.694 0.33v4.024h-2.045c-2.045 0-2.705 1.253-2.705 2.573v3.035h4.552l-0.726 4.75h-3.826v10.028h9.104c1.715 0 3.167-1.385 3.167-3.167v-23.222c0-1.715-1.451-3.167-3.167-3.167z"></path>
</symbol>
<symbol id="icon-insta-icon-av" viewBox="0 0 30 32">
<path fill="#fff" style="fill: var(--color1, #fff)" d="M15.111 8.191c-4.222 0-7.587 3.431-7.587 7.587 0 4.222 3.365 7.587 7.587 7.587 4.156 0 7.587-3.365 7.587-7.587 0-4.156-3.431-7.587-7.587-7.587zM15.111 20.726c-2.705 0-4.948-2.177-4.948-4.948 0-2.705 2.177-4.882 4.948-4.882 2.705 0 4.882 2.177 4.882 4.882 0 2.771-2.177 4.948-4.882 4.948zM24.743 7.927c0-0.99-0.792-1.781-1.781-1.781s-1.781 0.792-1.781 1.781 0.792 1.781 1.781 1.781c0.99 0 1.781-0.792 1.781-1.781zM29.757 9.708c-0.132-2.375-0.66-4.486-2.375-6.201s-3.826-2.243-6.201-2.375c-2.441-0.132-9.764-0.132-12.205 0-2.375 0.132-4.42 0.66-6.201 2.375-1.715 1.715-2.243 3.826-2.375 6.201-0.132 2.441-0.132 9.764 0 12.205 0.132 2.375 0.66 4.42 2.375 6.201 1.781 1.715 3.826 2.243 6.201 2.375 2.441 0.132 9.764 0.132 12.205 0 2.375-0.132 4.486-0.66 6.201-2.375 1.715-1.781 2.243-3.826 2.375-6.201 0.132-2.441 0.132-9.764 0-12.205zM26.59 24.486c-0.462 1.319-1.517 2.309-2.771 2.837-1.979 0.792-6.597 0.594-8.708 0.594-2.177 0-6.795 0.198-8.708-0.594-1.319-0.528-2.309-1.517-2.837-2.837-0.792-1.913-0.594-6.531-0.594-8.708 0-2.111-0.198-6.729 0.594-8.708 0.528-1.253 1.517-2.243 2.837-2.771 1.913-0.792 6.531-0.594 8.708-0.594 2.111 0 6.729-0.198 8.708 0.594 1.253 0.462 2.243 1.517 2.771 2.771 0.792 1.979 0.594 6.597 0.594 8.708 0 2.177 0.198 6.795-0.594 8.708z"></path>
</symbol>
<symbol id="icon-twit-icon-avv" viewBox="0 0 38 32">
<path fill="#fff" style="fill: var(--color1, #fff)" d="M34.066 8.031c1.484-1.113 2.82-2.449 3.859-4.008-1.336 0.594-2.895 1.039-4.453 1.188 1.633-0.965 2.82-2.449 3.414-4.305-1.484 0.891-3.191 1.559-4.899 1.93-1.484-1.559-3.488-2.449-5.715-2.449-4.305 0-7.793 3.488-7.793 7.793 0 0.594 0.074 1.188 0.223 1.781-6.457-0.371-12.246-3.488-16.105-8.164-0.668 1.113-1.039 2.449-1.039 3.934 0 2.672 1.336 5.047 3.488 6.457-1.262-0.074-2.523-0.371-3.563-0.965v0.074c0 3.785 2.672 6.902 6.234 7.645-0.594 0.148-1.336 0.297-2.004 0.297-0.52 0-0.965-0.074-1.484-0.148 0.965 3.117 3.859 5.344 7.273 5.418-2.672 2.078-6.012 3.34-9.648 3.34-0.668 0-1.262-0.074-1.855-0.148 3.414 2.227 7.496 3.488 11.949 3.488 14.324 0 22.117-11.801 22.117-22.117 0-0.371 0-0.668 0-1.039z"></path>
</symbol>
<symbol id="icon-unnown-icon-av" viewBox="0 0 30 32">
<path fill="#fff" style="fill: var(--color1, #fff)" d="M15.2 1.075c-8.134 0-14.725 6.65-14.725 14.725 0 8.134 6.591 14.725 14.725 14.725 8.075 0 14.725-6.591 14.725-14.725 0-8.075-6.65-14.725-14.725-14.725zM24.878 7.903c1.781 2.138 2.85 4.869 2.85 7.838-0.416-0.119-4.572-0.95-8.728-0.416-0.356-0.831-0.653-1.544-1.128-2.494 4.691-1.9 6.769-4.572 7.006-4.928zM23.512 6.419c-0.237 0.356-2.137 2.909-6.591 4.572-2.078-3.8-4.334-6.888-4.691-7.362 3.978-0.95 8.194 0.059 11.281 2.791zM9.797 4.459c0.356 0.475 2.613 3.563 4.691 7.303-5.878 1.544-11.044 1.544-11.637 1.484 0.831-3.859 3.444-7.125 6.947-8.787zM2.612 15.859c0-0.119 0-0.238 0-0.416 0.534 0.059 6.65 0.119 12.884-1.781 0.416 0.713 0.713 1.425 1.069 2.138-4.572 1.306-8.728 4.988-10.747 8.431-2.019-2.197-3.206-5.166-3.206-8.372zM7.422 25.775c1.366-2.672 4.928-6.175 9.975-7.897 1.781 4.572 2.494 8.431 2.672 9.559-4.038 1.722-8.906 1.247-12.647-1.662zM22.206 26.25c-0.119-0.712-0.831-4.394-2.434-8.966 3.919-0.594 7.363 0.416 7.838 0.534-0.594 3.503-2.613 6.531-5.403 8.431z"></path>
</symbol>
<symbol id="icon-phone-av" viewBox="0 0 32 32">
<path fill="#fff" style="fill: var(--color1, #fff)" d="M32 25.273c0 0.409-0.076 0.947-0.227 1.614-0.152 0.652-0.311 1.167-0.477 1.545-0.318 0.758-1.242 1.561-2.773 2.409-1.424 0.773-2.833 1.159-4.227 1.159-0.409 0-0.811-0.023-1.205-0.068-0.394-0.061-0.833-0.159-1.318-0.296-0.47-0.136-0.826-0.242-1.068-0.318-0.227-0.091-0.644-0.25-1.25-0.477s-0.977-0.364-1.114-0.409c-1.485-0.53-2.811-1.159-3.977-1.886-1.924-1.197-3.924-2.833-6-4.909s-3.712-4.076-4.909-6c-0.727-1.167-1.356-2.492-1.886-3.977-0.045-0.136-0.182-0.508-0.409-1.114s-0.386-1.023-0.477-1.25c-0.076-0.242-0.182-0.598-0.318-1.068-0.136-0.485-0.235-0.924-0.295-1.318-0.045-0.394-0.068-0.795-0.068-1.205 0-1.394 0.386-2.803 1.159-4.227 0.848-1.53 1.651-2.455 2.409-2.773 0.379-0.167 0.894-0.326 1.545-0.477 0.667-0.151 1.205-0.227 1.614-0.227 0.212 0 0.371 0.023 0.477 0.068 0.273 0.091 0.674 0.667 1.205 1.727 0.167 0.288 0.394 0.697 0.682 1.227s0.553 1.015 0.795 1.455c0.242 0.424 0.477 0.826 0.705 1.205 0.045 0.061 0.174 0.25 0.386 0.568 0.227 0.318 0.394 0.591 0.5 0.818 0.106 0.212 0.159 0.424 0.159 0.636 0 0.303-0.22 0.682-0.659 1.136-0.424 0.455-0.894 0.871-1.409 1.25-0.5 0.379-0.97 0.78-1.409 1.205-0.424 0.424-0.636 0.773-0.636 1.045 0 0.136 0.038 0.311 0.114 0.523 0.076 0.197 0.136 0.348 0.182 0.455 0.061 0.106 0.167 0.288 0.318 0.545 0.167 0.258 0.258 0.402 0.273 0.432 1.152 2.076 2.47 3.856 3.955 5.341s3.265 2.803 5.341 3.955c0.030 0.015 0.174 0.106 0.432 0.273 0.258 0.152 0.439 0.258 0.545 0.318 0.106 0.045 0.258 0.106 0.455 0.182 0.212 0.076 0.386 0.114 0.523 0.114 0.273 0 0.621-0.212 1.045-0.636 0.424-0.439 0.826-0.909 1.205-1.409 0.379-0.515 0.795-0.985 1.25-1.409 0.455-0.439 0.833-0.659 1.136-0.659 0.212 0 0.424 0.053 0.636 0.159 0.227 0.106 0.5 0.273 0.818 0.5 0.318 0.212 0.508 0.341 0.568 0.386 0.379 0.227 0.78 0.462 1.205 0.705 0.439 0.242 0.924 0.508 1.455 0.795s0.94 0.515 1.227 0.682c1.061 0.53 1.636 0.932 1.727 1.205 0.045 0.106 0.068 0.265 0.068 0.477z"></path>
</symbol>
<symbol id="icon-email-av" viewBox="0 0 41 32">
<path fill="#fff" style="fill: var(--color1, #fff)" d="M40.727 10.318v18.045c0 1-0.356 1.856-1.068 2.568s-1.568 1.068-2.568 1.068h-33.455c-1 0-1.856-0.356-2.568-1.068s-1.068-1.568-1.068-2.568v-18.045c0.667 0.742 1.432 1.402 2.295 1.977 5.485 3.727 9.25 6.341 11.295 7.841 0.864 0.636 1.561 1.136 2.091 1.5 0.545 0.348 1.265 0.712 2.159 1.091 0.894 0.364 1.727 0.545 2.5 0.545h0.045c0.773 0 1.606-0.182 2.5-0.545 0.894-0.379 1.606-0.742 2.136-1.091 0.545-0.364 1.25-0.864 2.114-1.5 2.576-1.864 6.348-4.477 11.318-7.841 0.863-0.591 1.621-1.25 2.273-1.977zM40.727 3.636c0 1.197-0.371 2.341-1.114 3.432s-1.667 2.023-2.773 2.795c-5.697 3.955-9.243 6.417-10.636 7.386-0.151 0.106-0.477 0.341-0.977 0.705-0.485 0.348-0.894 0.636-1.227 0.864-0.318 0.212-0.712 0.455-1.182 0.727-0.455 0.273-0.886 0.477-1.295 0.614s-0.788 0.205-1.136 0.205h-0.045c-0.348 0-0.727-0.068-1.136-0.205s-0.848-0.341-1.318-0.614c-0.455-0.273-0.849-0.515-1.182-0.727-0.318-0.227-0.727-0.515-1.227-0.864-0.485-0.364-0.803-0.599-0.955-0.705-1.379-0.97-3.364-2.348-5.955-4.136-2.591-1.803-4.144-2.886-4.659-3.25-0.939-0.636-1.826-1.508-2.659-2.614-0.833-1.121-1.25-2.159-1.25-3.114 0-1.182 0.311-2.167 0.932-2.955 0.636-0.788 1.538-1.182 2.705-1.182h33.455c0.985 0 1.833 0.356 2.545 1.068 0.727 0.712 1.091 1.568 1.091 2.568z"></path>
</symbol>
<symbol id="icon-addtess-av" viewBox="0 0 21 32">
<path fill="#fff" style="fill: var(--color1, #fff)" d="M14.44 14.438c1.042-1.042 1.563-2.299 1.563-3.771s-0.521-2.729-1.563-3.771c-1.042-1.042-2.299-1.563-3.771-1.563s-2.729 0.521-3.771 1.563c-1.042 1.042-1.562 2.299-1.562 3.771s0.521 2.729 1.562 3.771c1.042 1.042 2.299 1.563 3.771 1.563s2.729-0.521 3.771-1.563zM21.336 10.667c0 1.514-0.229 2.757-0.688 3.729l-7.583 16.125c-0.222 0.458-0.556 0.819-1 1.083-0.431 0.264-0.896 0.396-1.396 0.396s-0.972-0.132-1.417-0.396c-0.431-0.264-0.75-0.625-0.958-1.083l-7.604-16.125c-0.458-0.972-0.688-2.215-0.688-3.729 0-2.944 1.042-5.458 3.125-7.542s4.597-3.125 7.542-3.125c2.944 0 5.458 1.042 7.542 3.125s3.125 4.597 3.125 7.542z"></path>
</symbol>
<symbol id="icon-nft-insta-av" viewBox="0 0 33 32">
<path fill="#858584" style="fill: var(--color2, #858584)" d="M16.293 12c-2.209 0-4 1.791-4 4s1.791 4 4 4c2.209 0 4-1.791 4-4s-1.791-4-4-4zM10.293 16c0-3.314 2.686-6 6-6s6 2.686 6 6c0 3.314-2.686 6-6 6s-6-2.686-6-6z"></path>
<path fill="#858584" style="fill: var(--color2, #858584)" d="M10.793 5.5c-2.761 0-5 2.239-5 5v11c0 2.761 2.239 5 5 5h11c2.761 0 5-2.239 5-5v-11c0-2.761-2.239-5-5-5h-11zM3.793 10.5c0-3.866 3.134-7 7-7h11c3.866 0 7 3.134 7 7v11c0 3.866-3.134 7-7 7h-11c-3.866 0-7-3.134-7-7v-11z"></path>
<path fill="#858584" style="fill: var(--color2, #858584)" d="M22.793 11c0.828 0 1.5-0.672 1.5-1.5s-0.672-1.5-1.5-1.5c-0.828 0-1.5 0.672-1.5 1.5s0.672 1.5 1.5 1.5z"></path>
</symbol>
<symbol id="icon-Youtube-av" viewBox="0 0 33 32">
<path fill="#858584" style="fill: var(--color2, #858584)" d="M13.821 11.118c0.325-0.174 0.72-0.155 1.027 0.050l6 4c0.278 0.185 0.445 0.498 0.445 0.832s-0.167 0.647-0.445 0.832l-6 4c-0.307 0.204-0.701 0.224-1.027 0.050s-0.528-0.513-0.528-0.882v-8c0-0.369 0.203-0.708 0.528-0.882zM15.293 13.868v4.263l3.197-2.131-3.197-2.131z"></path>
<path fill="#858584" style="fill: var(--color2, #858584)" d="M16.291 5.050l0.083-0c0.055 0 0.134 0.001 0.236 0.002 0.204 0.002 0.497 0.007 0.863 0.018 0.729 0.022 1.746 0.068 2.897 0.165 2.276 0.192 5.174 0.591 7.406 1.444l0.015 0.006c0.438 0.175 0.829 0.451 1.141 0.806s0.536 0.777 0.655 1.234l0.001 0.004c0.311 1.219 0.706 3.478 0.706 7.273s-0.395 6.054-0.706 7.273l-0.001 0.004c-0.119 0.457-0.343 0.88-0.655 1.234s-0.703 0.63-1.141 0.806l-0.015 0.006c-2.231 0.852-5.129 1.251-7.406 1.444-1.151 0.097-2.168 0.143-2.897 0.165-0.365 0.011-0.659 0.016-0.863 0.018-0.102 0.001-0.181 0.002-0.236 0.002h-0.162c-0.055-0-0.134-0-0.236-0.002-0.204-0.002-0.498-0.007-0.863-0.018-0.729-0.022-1.746-0.068-2.897-0.165-2.276-0.192-5.174-0.591-7.406-1.444l-0.015-0.006c-0.438-0.175-0.829-0.451-1.141-0.806s-0.536-0.777-0.655-1.234l-0.001-0.004c-0.311-1.219-0.706-3.478-0.706-7.273s0.395-6.054 0.706-7.273l0.001-0.004c0.119-0.457 0.343-0.88 0.655-1.234s0.703-0.63 1.141-0.806l0.015-0.006c2.231-0.853 5.129-1.251 7.406-1.444 1.151-0.097 2.167-0.143 2.897-0.165 0.365-0.011 0.659-0.016 0.863-0.018 0.102-0.001 0.181-0.001 0.236-0.002l0.080 0zM16.288 24.95l0.011-0 0.003 0h0.068c0.049-0 0.123-0 0.219-0.002 0.192-0.002 0.473-0.007 0.824-0.017 0.702-0.021 1.682-0.066 2.789-0.159 2.236-0.189 4.896-0.57 6.852-1.316 0.145-0.059 0.274-0.151 0.377-0.268 0.105-0.119 0.18-0.26 0.22-0.413 0.264-1.032 0.643-3.122 0.643-6.775s-0.38-5.743-0.643-6.775c-0.040-0.153-0.115-0.294-0.22-0.413-0.103-0.117-0.233-0.209-0.377-0.268-1.956-0.745-4.616-1.127-6.852-1.316-1.107-0.093-2.086-0.138-2.789-0.159-0.351-0.011-0.632-0.015-0.824-0.017-0.096-0.001-0.17-0.001-0.219-0.002l-0.153 0c-0.049 0-0.123 0-0.219 0.002-0.192 0.002-0.473 0.007-0.824 0.017-0.702 0.021-1.682 0.066-2.789 0.159-2.236 0.189-4.896 0.57-6.852 1.316-0.145 0.059-0.274 0.151-0.377 0.268-0.104 0.119-0.18 0.26-0.22 0.413-0.264 1.032-0.643 3.122-0.643 6.775s0.38 5.743 0.643 6.775c0.040 0.153 0.115 0.294 0.22 0.413 0.103 0.117 0.233 0.209 0.377 0.268 1.955 0.745 4.616 1.127 6.852 1.316 1.107 0.093 2.086 0.138 2.789 0.159 0.351 0.011 0.632 0.015 0.824 0.017 0.096 0.001 0.17 0.001 0.219 0.002h0.071z"></path>
</symbol>
<symbol id="icon-Discord-av" viewBox="0 0 33 32">
<path fill="#858584" style="fill: var(--color2, #858584)" d="M12.293 19.5c0.828 0 1.5-0.672 1.5-1.5s-0.672-1.5-1.5-1.5c-0.829 0-1.5 0.672-1.5 1.5s0.671 1.5 1.5 1.5z"></path>
<path fill="#858584" style="fill: var(--color2, #858584)" d="M20.293 19.5c0.828 0 1.5-0.672 1.5-1.5s-0.672-1.5-1.5-1.5c-0.828 0-1.5 0.672-1.5 1.5s0.672 1.5 1.5 1.5z"></path>
<path fill="#858584" style="fill: var(--color2, #858584)" d="M16.285 10c-2.168-0.016-4.325 0.306-6.394 0.954-0.527 0.165-1.088-0.128-1.253-0.655s0.128-1.088 0.655-1.253c2.265-0.71 4.626-1.063 6.999-1.046 2.373-0.017 4.734 0.336 6.999 1.046 0.527 0.165 0.82 0.726 0.655 1.253s-0.726 0.82-1.253 0.655c-2.069-0.648-4.226-0.97-6.393-0.954h-0.015z"></path>
<path fill="#858584" style="fill: var(--color2, #858584)" d="M8.638 21.701c0.165-0.527 0.726-0.82 1.253-0.655 2.069 0.648 4.226 0.97 6.394 0.954h0.015c2.168 0.016 4.325-0.306 6.393-0.954 0.527-0.165 1.088 0.128 1.253 0.655s-0.128 1.088-0.655 1.253c-2.265 0.71-4.626 1.063-6.999 1.046-2.373 0.017-4.735-0.336-6.999-1.046-0.527-0.165-0.82-0.726-0.655-1.253z"></path>
<path fill="#858584" style="fill: var(--color2, #858584)" d="M20.512 4.811c0.43-0.243 0.935-0.319 1.418-0.213 1.318 0.286 2.607 0.686 3.855 1.197 0.281 0.108 0.533 0.28 0.737 0.501 0.206 0.224 0.358 0.492 0.442 0.785l4.236 14.144c0.11 0.369 0.113 0.761 0.007 1.131s-0.315 0.702-0.604 0.956l-0.005 0.005c-2.067 1.799-4.869 3.161-8.051 3.941-0.442 0.113-0.909 0.069-1.323-0.124-0.412-0.192-0.745-0.52-0.942-0.929l-1.508-2.991c-0.249-0.493-0.050-1.095 0.443-1.343s1.095-0.050 1.343 0.443l1.514 3.002c2.938-0.72 5.432-1.958 7.212-3.506l0.657 0.754-0.662-0.75c0.002-0.002 0.003-0.004 0.004-0.006s0.001-0.005 0-0.007l-4.236-14.145c-0.003-0.001-0.007-0.003-0.011-0.004-1.143-0.469-2.325-0.836-3.532-1.098l-0.002-0c-0.003-0.001-0.006-0-0.009 0.001s-0.004 0.003-0.005 0.006l-0.985 2.98c-0.173 0.524-0.739 0.809-1.263 0.636s-0.809-0.739-0.636-1.263l0.99-2.996c0.16-0.468 0.486-0.861 0.916-1.104z"></path>
<path fill="#858584" style="fill: var(--color2, #858584)" d="M11.091 6.553c-0.003-0.002-0.006-0.002-0.009-0.001l-0.002 0c-1.207 0.262-2.389 0.629-3.532 1.098-0.004 0.001-0.007 0.003-0.011 0.004l-4.236 14.145c-0.001 0.002-0.001 0.005-0 0.007s0.002 0.004 0.003 0.005c1.78 1.547 4.272 2.783 7.207 3.502l0.001-0.002 1.512-3c0.249-0.493 0.85-0.691 1.343-0.443s0.691 0.85 0.443 1.343l-1.508 2.992c-0.198 0.409-0.531 0.737-0.942 0.929-0.414 0.193-0.881 0.237-1.323 0.124-3.182-0.78-5.983-2.142-8.051-3.941l-0.005-0.005c-0.288-0.255-0.498-0.586-0.604-0.956s-0.103-0.762 0.007-1.131c-0 0 0-0 0 0l4.236-14.145c0.085-0.292 0.236-0.561 0.442-0.785 0.204-0.221 0.456-0.393 0.737-0.501 1.248-0.511 2.538-0.912 3.856-1.197 0.482-0.105 0.987-0.029 1.417 0.213s0.757 0.636 0.916 1.104l0.003 0.009 0.988 2.987c0.173 0.524-0.111 1.090-0.636 1.263s-1.090-0.111-1.263-0.636l-0.985-2.98c-0.001-0.003-0.003-0.005-0.005-0.006z"></path>
</symbol>
<symbol id="icon-Rocket-icon-av" viewBox="0 0 32 32">
<path fill="#fff" style="fill: var(--color1, #fff)" d="M9.873 19.919c0.176 0.524-0.106 1.091-0.629 1.267-1.695 0.57-2.596 1.993-3.078 3.44-0.191 0.575-0.307 1.128-0.376 1.585 0.457-0.069 1.011-0.185 1.585-0.376 1.447-0.482 2.87-1.383 3.44-3.078 0.176-0.523 0.743-0.805 1.267-0.629s0.805 0.743 0.629 1.267c-0.855 2.542-2.97 3.76-4.704 4.338-0.876 0.292-1.696 0.436-2.295 0.508-0.301 0.036-0.549 0.054-0.726 0.064-0.088 0.005-0.159 0.007-0.21 0.008-0.025 0.001-0.045 0.001-0.060 0.001l-0.018 0h-0.009c-0 0-0.001 0-0.001-1-1 0-1-0-1-0.001v-0.003l0-0.006 0-0.018c0-0.015 0.001-0.035 0.001-0.060 0.001-0.050 0.004-0.121 0.008-0.209 0.009-0.177 0.028-0.425 0.064-0.726 0.072-0.599 0.216-1.419 0.508-2.295 0.577-1.734 1.795-3.849 4.338-4.704 0.523-0.176 1.091 0.106 1.267 0.629zM4.688 27.313h-1c0 0.552 0.448 1 1 1v-1z"></path>
<path fill="#fff" style="fill: var(--color1, #fff)" d="M26.474 5.527c0.167 1.161 0.231 4.018-2.694 6.942l-7.78 7.78-4.248-4.248 7.78-7.78c2.924-2.924 5.781-2.861 6.942-2.694zM26.764 3.548c-1.596-0.231-5.155-0.233-8.646 3.258l-8.488 8.488c-0.188 0.188-0.293 0.442-0.293 0.707s0.105 0.52 0.293 0.707l5.662 5.663c0.391 0.391 1.024 0.391 1.414 0l8.488-8.488c3.491-3.491 3.489-7.050 3.258-8.646-0.058-0.427-0.255-0.824-0.56-1.129s-0.701-0.502-1.129-0.56z"></path>
<path fill="#fff" style="fill: var(--color1, #fff)" d="M23.075 13.588c0.552 0 1 0.448 1 1v8.075l-0 0.014c-0.007 0.525-0.221 1.026-0.595 1.395l-4.036 4.048c-0.256 0.256-0.577 0.437-0.928 0.525s-0.72 0.079-1.066-0.027c-0.346-0.105-0.658-0.303-0.901-0.571s-0.408-0.597-0.479-0.952c-0-0 0 0 0 0l-1.050-5.237c-0.109-0.541 0.242-1.068 0.784-1.177s1.069 0.242 1.177 0.784l1.050 5.239 4.044-4.057v-8.061c0-0.552 0.448-1 1-1z"></path>
<path fill="#fff" style="fill: var(--color1, #fff)" d="M9.324 7.925l0.014-0h8.075c0.552 0 1 0.448 1 1s-0.448 1-1 1h-8.061l-0.008 0.008-0-0-4.047 4.036 5.238 1.050c0.541 0.109 0.892 0.636 0.784 1.177s-0.636 0.892-1.177 0.784l-5.236-1.050c-0-0-0.001-0-0.001-0-0.355-0.071-0.684-0.236-0.952-0.479s-0.466-0.555-0.571-0.901-0.114-0.715-0.027-1.066c0.088-0.351 0.269-0.672 0.525-0.928l0.002-0.002 4.047-4.034c0.369-0.374 0.87-0.588 1.395-0.595z"></path>
</symbol>
<symbol id="icon-User-icon-av" viewBox="0 0 32 32">
<path fill="#fff" style="fill: var(--color1, #fff)" d="M16 5c-3.866 0-7 3.134-7 7s3.134 7 7 7c3.866 0 7-3.134 7-7s-3.134-7-7-7zM7 12c0-4.971 4.029-9 9-9s9 4.029 9 9c0 4.971-4.029 9-9 9s-9-4.029-9-9z"></path>
<path fill="#fff" style="fill: var(--color1, #fff)" d="M16 20.998c-2.282 0-4.524 0.601-6.5 1.742s-3.617 2.782-4.758 4.759c-0.276 0.478-0.888 0.642-1.366 0.366s-0.642-0.888-0.366-1.366c1.316-2.281 3.21-4.175 5.49-5.491s4.867-2.010 7.501-2.010 5.22 0.693 7.501 2.010c2.28 1.317 4.174 3.211 5.49 5.491 0.276 0.478 0.112 1.090-0.366 1.366s-1.090 0.112-1.366-0.366c-1.141-1.977-2.782-3.618-4.758-4.759s-4.218-1.742-6.5-1.742z"></path>
</symbol>
<symbol id="icon-nft" viewBox="0 0 32 32">
<path fill="#a259ff" style="fill: var(--color3, #a259ff)" d="M6 12.45c0.552 0 1 0.448 1 1v12.55h18v-12.55c0-0.552 0.448-1 1-1s1 0.448 1 1v12.55c0 0.53-0.211 1.039-0.586 1.414s-0.884 0.586-1.414 0.586h-18c-0.53 0-1.039-0.211-1.414-0.586s-0.586-0.884-0.586-1.414v-12.55c0-0.552 0.448-1 1-1z"></path>
<path fill="#a259ff" style="fill: var(--color3, #a259ff)" d="M3 5c0-0.552 0.448-1 1-1h24c0.552 0 1 0.448 1 1s-0.448 1-1 1h-24c-0.552 0-1-0.448-1-1z"></path>
<path fill="#a259ff" style="fill: var(--color3, #a259ff)" d="M4 7c0.552 0 1 0.448 1 1v2c0 0.796 0.316 1.559 0.879 2.121s1.326 0.879 2.121 0.879c0.796 0 1.559-0.316 2.121-0.879s0.879-1.326 0.879-2.121v-2c0-0.552 0.448-1 1-1s1 0.448 1 1v2c0 1.326-0.527 2.598-1.464 3.535s-2.209 1.464-3.536 1.464-2.598-0.527-3.536-1.464c-0.938-0.938-1.464-2.209-1.464-3.535v-2c0-0.552 0.448-1 1-1z"></path>
<path fill="#a259ff" style="fill: var(--color3, #a259ff)" d="M12 7c0.552 0 1 0.448 1 1v2c0 0.796 0.316 1.559 0.879 2.121s1.326 0.879 2.121 0.879c0.796 0 1.559-0.316 2.121-0.879s0.879-1.326 0.879-2.121v-2c0-0.552 0.448-1 1-1s1 0.448 1 1v2c0 1.326-0.527 2.598-1.465 3.535s-2.209 1.464-3.535 1.464-2.598-0.527-3.535-1.464c-0.938-0.938-1.464-2.209-1.464-3.535v-2c0-0.552 0.448-1 1-1z"></path>
<path fill="#a259ff" style="fill: var(--color3, #a259ff)" d="M20 7c0.552 0 1 0.448 1 1v2c0 0.796 0.316 1.559 0.879 2.121s1.326 0.879 2.121 0.879c0.796 0 1.559-0.316 2.121-0.879s0.879-1.326 0.879-2.121v-2c0-0.552 0.448-1 1-1s1 0.448 1 1v2c0 1.326-0.527 2.598-1.465 3.535s-2.209 1.464-3.535 1.464-2.598-0.527-3.535-1.464c-0.938-0.938-1.465-2.209-1.465-3.535v-2c0-0.552 0.448-1 1-1z"></path>
</symbol>
<symbol id="icon-nft-key-av" viewBox="0 0 32 32">
<path fill="#bdbdbd" style="fill: var(--color4, #bdbdbd)" d="M16 16c-0.828 0-1.5 0.672-1.5 1.5s0.672 1.5 1.5 1.5c0.828 0 1.5-0.672 1.5-1.5s-0.672-1.5-1.5-1.5zM12.5 17.5c0-1.933 1.567-3.5 3.5-3.5s3.5 1.567 3.5 3.5c0 1.933-1.567 3.5-3.5 3.5s-3.5-1.567-3.5-3.5z"></path>
<path fill="#bdbdbd" style="fill: var(--color4, #bdbdbd)" d="M16 19c0.552 0 1 0.448 1 1v3c0 0.552-0.448 1-1 1s-1-0.448-1-1v-3c0-0.552 0.448-1 1-1z"></path>
<path fill="#bdbdbd" style="fill: var(--color4, #bdbdbd)" d="M4 12c0-1.105 0.895-2 2-2h20c1.105 0 2 0.895 2 2v14c0 1.105-0.895 2-2 2h-20c-1.105 0-2-0.895-2-2v-14zM26 12h-20v14h20v-14z"></path>
<path fill="#bdbdbd" style="fill: var(--color4, #bdbdbd)" d="M16 3c-0.928 0-1.819 0.369-2.475 1.025s-1.025 1.547-1.025 2.475v4.5c0 0.552-0.448 1-1 1s-1-0.448-1-1v-4.5c0-1.459 0.579-2.858 1.611-3.889s2.43-1.611 3.889-1.611c1.459 0 2.858 0.579 3.889 1.611s1.611 2.43 1.611 3.889v4.5c0 0.552-0.448 1-1 1s-1-0.448-1-1v-4.5c0-0.928-0.369-1.819-1.025-2.475s-1.547-1.025-2.475-1.025z"></path>
</symbol>
<symbol id="icon-nft-envelope-av" viewBox="0 0 32 32">
<path fill="#bdbdbd" style="fill: var(--color4, #bdbdbd)" d="M3 7c0-0.552 0.448-1 1-1h24c0.552 0 1 0.448 1 1v17c0 0.53-0.211 1.039-0.586 1.414s-0.884 0.586-1.414 0.586h-22c-0.53 0-1.039-0.211-1.414-0.586s-0.586-0.884-0.586-1.414v-17zM5 8v16h22v-16h-22z"></path>
<path fill="#bdbdbd" style="fill: var(--color4, #bdbdbd)" d="M3.263 6.324c0.373-0.407 1.006-0.435 1.413-0.061l11.324 10.38 11.324-10.38c0.407-0.373 1.040-0.346 1.413 0.061s0.346 1.040-0.061 1.413l-12 11c-0.382 0.351-0.969 0.351-1.351 0l-12-11c-0.407-0.373-0.435-1.006-0.061-1.413z"></path>
</symbol>
<symbol id="icon-nft-user-av" viewBox="0 0 32 32">
<path fill="#bdbdbd" style="fill: var(--color4, #bdbdbd)" d="M16 5c-3.866 0-7 3.134-7 7s3.134 7 7 7c3.866 0 7-3.134 7-7s-3.134-7-7-7zM7 12c0-4.971 4.029-9 9-9s9 4.029 9 9c0 4.971-4.029 9-9 9s-9-4.029-9-9z"></path>
<path fill="#bdbdbd" style="fill: var(--color4, #bdbdbd)" d="M16 20.998c-2.282 0-4.524 0.601-6.5 1.742s-3.617 2.782-4.758 4.759c-0.276 0.478-0.888 0.642-1.366 0.366s-0.642-0.888-0.366-1.366c1.316-2.281 3.21-4.175 5.49-5.491s4.867-2.010 7.501-2.010 5.22 0.693 7.501 2.010c2.28 1.317 4.174 3.211 5.49 5.491 0.276 0.478 0.112 1.090-0.366 1.366s-1.090 0.112-1.366-0.366c-1.141-1.977-2.782-3.618-4.758-4.759s-4.218-1.742-6.5-1.742z"></path>
</symbol>
<symbol id="icon-p-layout" viewBox="0 0 32 32">
<path d="M5.333 28c-0.736 0-1.333-0.597-1.333-1.333v-21.333c0-0.736 0.597-1.333 1.333-1.333h21.333c0.736 0 1.333 0.597 1.333 1.333v21.333c0 0.736-0.597 1.333-1.333 1.333h-21.333zM10.667 13.333h-4v12h4v-12zM25.333 13.333h-12v12h12v-12zM25.333 6.667h-18.667v4h18.667v-4z"></path>
</symbol>
<symbol id="icon-p-github-fill" viewBox="0 0 32 32">
<path d="M16.001 2.667c-7.367 0-13.333 5.967-13.333 13.333 0 5.9 3.817 10.883 9.117 12.65 0.667 0.117 0.917-0.283 0.917-0.633 0-0.317-0.017-1.367-0.017-2.483-3.35 0.617-4.217-0.817-4.483-1.567-0.15-0.383-0.8-1.567-1.367-1.883-0.467-0.25-1.133-0.867-0.017-0.883 1.050-0.017 1.8 0.967 2.050 1.367 1.2 2.017 3.117 1.45 3.883 1.1 0.117-0.867 0.467-1.45 0.85-1.783-2.967-0.333-6.067-1.483-6.067-6.583 0-1.45 0.517-2.65 1.367-3.583-0.133-0.333-0.6-1.7 0.133-3.533 0 0 1.117-0.35 3.667 1.367 1.067-0.3 2.2-0.45 3.333-0.45s2.267 0.15 3.333 0.45c2.55-1.733 3.667-1.367 3.667-1.367 0.733 1.833 0.267 3.2 0.133 3.533 0.85 0.933 1.367 2.117 1.367 3.583 0 5.117-3.117 6.25-6.083 6.583 0.483 0.417 0.9 1.217 0.9 2.467 0 1.783-0.017 3.217-0.017 3.667 0 0.35 0.25 0.767 0.917 0.633 5.427-1.832 9.082-6.922 9.083-12.65 0-7.367-5.967-13.333-13.333-13.333z"></path>
</symbol>
<symbol id="icon-p-menu-line" viewBox="0 0 32 32">
<path d="M4 5.333h24v2.667h-24v-2.667zM4 14.667h24v2.667h-24v-2.667zM4 24h24v2.667h-24v-2.667z"></path>
</symbol>
<symbol id="icon-bullhorn" viewBox="0 0 32 32">
<path d="M32 13.414c0-6.279-1.837-11.373-4.109-11.413 0.009-0 0.018-0.001 0.027-0.001h-2.592c0 0-6.088 4.573-14.851 6.367-0.268 1.415-0.438 3.102-0.438 5.047s0.171 3.631 0.438 5.047c8.763 1.794 14.851 6.367 14.851 6.367h2.592c-0.009 0-0.018-0.001-0.027-0.001 2.272-0.040 4.109-5.134 4.109-11.413zM27.026 23.102c-0.293 0-0.61-0.304-0.773-0.486-0.395-0.439-0.775-1.124-1.1-1.979-0.727-1.913-1.127-4.478-1.127-7.223s0.4-5.309 1.127-7.223c0.325-0.855 0.705-1.54 1.1-1.979 0.163-0.182 0.48-0.486 0.773-0.486s0.61 0.304 0.773 0.486c0.395 0.439 0.775 1.124 1.1 1.979 0.727 1.913 1.127 4.479 1.127 7.223s-0.4 5.309-1.127 7.223c-0.325 0.855-0.705 1.54-1.1 1.979-0.163 0.181-0.48 0.486-0.773 0.486zM7.869 13.414c0-1.623 0.119-3.201 0.345-4.659-1.48 0.205-2.779 0.323-4.386 0.323-2.096 0-2.096 0-2.096 0l-1.733 2.959v2.755l1.733 2.959c0 0 0 0 2.096 0 1.606 0 2.905 0.118 4.386 0.323-0.226-1.458-0.345-3.036-0.345-4.659zM11.505 20.068l-4-0.766 2.558 10.048c0.132 0.52 0.648 0.782 1.146 0.583l3.705-1.483c0.498-0.199 0.698-0.749 0.444-1.221l-3.853-7.161zM27.026 17.148c-0.113 0-0.235-0.117-0.298-0.187-0.152-0.169-0.299-0.433-0.424-0.763-0.28-0.738-0.434-1.726-0.434-2.784s0.154-2.046 0.434-2.784c0.125-0.33 0.272-0.593 0.424-0.763 0.063-0.070 0.185-0.187 0.298-0.187s0.235 0.117 0.298 0.187c0.152 0.169 0.299 0.433 0.424 0.763 0.28 0.737 0.434 1.726 0.434 2.784s-0.154 2.046-0.434 2.784c-0.125 0.33-0.272 0.593-0.424 0.763-0.063 0.070-0.185 0.187-0.298 0.187z"></path>
</symbol>
<symbol id="icon-folder-plus" viewBox="0 0 32 32">
<path d="M18 8l-4-4h-14v26h32v-22h-14zM22 22h-4v4h-4v-4h-4v-4h4v-4h4v4h4v4z"></path>
</symbol>
</defs>
</svg>
