<!-- Generated by IcoMoon.io -->
<svg version="1.1" xmlns="http://www.w3.org/2000/svg" width="21" height="32" viewBox="0 0 21 32">
<title>addtess-av</title>
<path fill="#fff" d="M14.44 14.438c1.042-1.042 1.563-2.299 1.563-3.771s-0.521-2.729-1.563-3.771c-1.042-1.042-2.299-1.563-3.771-1.563s-2.729 0.521-3.771 1.563c-1.042 1.042-1.562 2.299-1.562 3.771s0.521 2.729 1.562 3.771c1.042 1.042 2.299 1.563 3.771 1.563s2.729-0.521 3.771-1.563zM21.336 10.667c0 1.514-0.229 2.757-0.688 3.729l-7.583 16.125c-0.222 0.458-0.556 0.819-1 1.083-0.431 0.264-0.896 0.396-1.396 0.396s-0.972-0.132-1.417-0.396c-0.431-0.264-0.75-0.625-0.958-1.083l-7.604-16.125c-0.458-0.972-0.688-2.215-0.688-3.729 0-2.944 1.042-5.458 3.125-7.542s4.597-3.125 7.542-3.125c2.944 0 5.458 1.042 7.542 3.125s3.125 4.597 3.125 7.542z"></path>
</svg>
