<!-- Generated by IcoMoon.io -->
<svg version="1.1" xmlns="http://www.w3.org/2000/svg" width="41" height="32" viewBox="0 0 41 32">
<title>email-av</title>
<path fill="#fff" d="M40.727 10.318v18.045c0 1-0.356 1.856-1.068 2.568s-1.568 1.068-2.568 1.068h-33.455c-1 0-1.856-0.356-2.568-1.068s-1.068-1.568-1.068-2.568v-18.045c0.667 0.742 1.432 1.402 2.295 1.977 5.485 3.727 9.25 6.341 11.295 7.841 0.864 0.636 1.561 1.136 2.091 1.5 0.545 0.348 1.265 0.712 2.159 1.091 0.894 0.364 1.727 0.545 2.5 0.545h0.045c0.773 0 1.606-0.182 2.5-0.545 0.894-0.379 1.606-0.742 2.136-1.091 0.545-0.364 1.25-0.864 2.114-1.5 2.576-1.864 6.348-4.477 11.318-7.841 0.863-0.591 1.621-1.25 2.273-1.977zM40.727 3.636c0 1.197-0.371 2.341-1.114 3.432s-1.667 2.023-2.773 2.795c-5.697 3.955-9.243 6.417-10.636 7.386-0.151 0.106-0.477 0.341-0.977 0.705-0.485 0.348-0.894 0.636-1.227 0.864-0.318 0.212-0.712 0.455-1.182 0.727-0.455 0.273-0.886 0.477-1.295 0.614s-0.788 0.205-1.136 0.205h-0.045c-0.348 0-0.727-0.068-1.136-0.205s-0.848-0.341-1.318-0.614c-0.455-0.273-0.849-0.515-1.182-0.727-0.318-0.227-0.727-0.515-1.227-0.864-0.485-0.364-0.803-0.599-0.955-0.705-1.379-0.97-3.364-2.348-5.955-4.136-2.591-1.803-4.144-2.886-4.659-3.25-0.939-0.636-1.826-1.508-2.659-2.614-0.833-1.121-1.25-2.159-1.25-3.114 0-1.182 0.311-2.167 0.932-2.955 0.636-0.788 1.538-1.182 2.705-1.182h33.455c0.985 0 1.833 0.356 2.545 1.068 0.727 0.712 1.091 1.568 1.091 2.568z"></path>
</svg>
