<!-- Generated by IcoMoon.io -->
<svg version="1.1" xmlns="http://www.w3.org/2000/svg" width="30" height="32" viewBox="0 0 30 32">
<title>fb-icon-av</title>
<path fill="#fff" d="M26.722 1h-23.222c-1.781 0-3.167 1.451-3.167 3.167v23.222c0 1.781 1.385 3.167 3.167 3.167h9.038v-10.028h-4.156v-4.75h4.156v-3.563c0-4.090 2.441-6.399 6.135-6.399 1.847 0 3.694 0.33 3.694 0.33v4.024h-2.045c-2.045 0-2.705 1.253-2.705 2.573v3.035h4.552l-0.726 4.75h-3.826v10.028h9.104c1.715 0 3.167-1.385 3.167-3.167v-23.222c0-1.715-1.451-3.167-3.167-3.167z"></path>
</svg>
