<!-- Generated by IcoMoon.io -->
<svg version="1.1" xmlns="http://www.w3.org/2000/svg" width="30" height="32" viewBox="0 0 30 32">
<title>insta-icon-av</title>
<path fill="#fff" d="M15.111 8.191c-4.222 0-7.587 3.431-7.587 7.587 0 4.222 3.365 7.587 7.587 7.587 4.156 0 7.587-3.365 7.587-7.587 0-4.156-3.431-7.587-7.587-7.587zM15.111 20.726c-2.705 0-4.948-2.177-4.948-4.948 0-2.705 2.177-4.882 4.948-4.882 2.705 0 4.882 2.177 4.882 4.882 0 2.771-2.177 4.948-4.882 4.948zM24.743 7.927c0-0.99-0.792-1.781-1.781-1.781s-1.781 0.792-1.781 1.781 0.792 1.781 1.781 1.781c0.99 0 1.781-0.792 1.781-1.781zM29.757 9.708c-0.132-2.375-0.66-4.486-2.375-6.201s-3.826-2.243-6.201-2.375c-2.441-0.132-9.764-0.132-12.205 0-2.375 0.132-4.42 0.66-6.201 2.375-1.715 1.715-2.243 3.826-2.375 6.201-0.132 2.441-0.132 9.764 0 12.205 0.132 2.375 0.66 4.42 2.375 6.201 1.781 1.715 3.826 2.243 6.201 2.375 2.441 0.132 9.764 0.132 12.205 0 2.375-0.132 4.486-0.66 6.201-2.375 1.715-1.781 2.243-3.826 2.375-6.201 0.132-2.441 0.132-9.764 0-12.205zM26.59 24.486c-0.462 1.319-1.517 2.309-2.771 2.837-1.979 0.792-6.597 0.594-8.708 0.594-2.177 0-6.795 0.198-8.708-0.594-1.319-0.528-2.309-1.517-2.837-2.837-0.792-1.913-0.594-6.531-0.594-8.708 0-2.111-0.198-6.729 0.594-8.708 0.528-1.253 1.517-2.243 2.837-2.771 1.913-0.792 6.531-0.594 8.708-0.594 2.111 0 6.729-0.198 8.708 0.594 1.253 0.462 2.243 1.517 2.771 2.771 0.792 1.979 0.594 6.597 0.594 8.708 0 2.177 0.198 6.795-0.594 8.708z"></path>
</svg>
