<!-- Generated by IcoMoon.io -->
<svg version="1.1" xmlns="http://www.w3.org/2000/svg" width="32" height="32" viewBox="0 0 32 32">
<title>nft-key-av</title>
<path fill="#bdbdbd" d="M16 16c-0.828 0-1.5 0.672-1.5 1.5s0.672 1.5 1.5 1.5c0.828 0 1.5-0.672 1.5-1.5s-0.672-1.5-1.5-1.5zM12.5 17.5c0-1.933 1.567-3.5 3.5-3.5s3.5 1.567 3.5 3.5c0 1.933-1.567 3.5-3.5 3.5s-3.5-1.567-3.5-3.5z"></path>
<path fill="#bdbdbd" d="M16 19c0.552 0 1 0.448 1 1v3c0 0.552-0.448 1-1 1s-1-0.448-1-1v-3c0-0.552 0.448-1 1-1z"></path>
<path fill="#bdbdbd" d="M4 12c0-1.105 0.895-2 2-2h20c1.105 0 2 0.895 2 2v14c0 1.105-0.895 2-2 2h-20c-1.105 0-2-0.895-2-2v-14zM26 12h-20v14h20v-14z"></path>
<path fill="#bdbdbd" d="M16 3c-0.928 0-1.819 0.369-2.475 1.025s-1.025 1.547-1.025 2.475v4.5c0 0.552-0.448 1-1 1s-1-0.448-1-1v-4.5c0-1.459 0.579-2.858 1.611-3.889s2.43-1.611 3.889-1.611c1.459 0 2.858 0.579 3.889 1.611s1.611 2.43 1.611 3.889v4.5c0 0.552-0.448 1-1 1s-1-0.448-1-1v-4.5c0-0.928-0.369-1.819-1.025-2.475s-1.547-1.025-2.475-1.025z"></path>
</svg>
