<!-- Generated by IcoMoon.io -->
<svg version="1.1" xmlns="http://www.w3.org/2000/svg" width="32" height="32" viewBox="0 0 32 32">
<title>phone-av</title>
<path fill="#fff" d="M32 25.273c0 0.409-0.076 0.947-0.227 1.614-0.152 0.652-0.311 1.167-0.477 1.545-0.318 0.758-1.242 1.561-2.773 2.409-1.424 0.773-2.833 1.159-4.227 1.159-0.409 0-0.811-0.023-1.205-0.068-0.394-0.061-0.833-0.159-1.318-0.296-0.47-0.136-0.826-0.242-1.068-0.318-0.227-0.091-0.644-0.25-1.25-0.477s-0.977-0.364-1.114-0.409c-1.485-0.53-2.811-1.159-3.977-1.886-1.924-1.197-3.924-2.833-6-4.909s-3.712-4.076-4.909-6c-0.727-1.167-1.356-2.492-1.886-3.977-0.045-0.136-0.182-0.508-0.409-1.114s-0.386-1.023-0.477-1.25c-0.076-0.242-0.182-0.598-0.318-1.068-0.136-0.485-0.235-0.924-0.295-1.318-0.045-0.394-0.068-0.795-0.068-1.205 0-1.394 0.386-2.803 1.159-4.227 0.848-1.53 1.651-2.455 2.409-2.773 0.379-0.167 0.894-0.326 1.545-0.477 0.667-0.151 1.205-0.227 1.614-0.227 0.212 0 0.371 0.023 0.477 0.068 0.273 0.091 0.674 0.667 1.205 1.727 0.167 0.288 0.394 0.697 0.682 1.227s0.553 1.015 0.795 1.455c0.242 0.424 0.477 0.826 0.705 1.205 0.045 0.061 0.174 0.25 0.386 0.568 0.227 0.318 0.394 0.591 0.5 0.818 0.106 0.212 0.159 0.424 0.159 0.636 0 0.303-0.22 0.682-0.659 1.136-0.424 0.455-0.894 0.871-1.409 1.25-0.5 0.379-0.97 0.78-1.409 1.205-0.424 0.424-0.636 0.773-0.636 1.045 0 0.136 0.038 0.311 0.114 0.523 0.076 0.197 0.136 0.348 0.182 0.455 0.061 0.106 0.167 0.288 0.318 0.545 0.167 0.258 0.258 0.402 0.273 0.432 1.152 2.076 2.47 3.856 3.955 5.341s3.265 2.803 5.341 3.955c0.030 0.015 0.174 0.106 0.432 0.273 0.258 0.152 0.439 0.258 0.545 0.318 0.106 0.045 0.258 0.106 0.455 0.182 0.212 0.076 0.386 0.114 0.523 0.114 0.273 0 0.621-0.212 1.045-0.636 0.424-0.439 0.826-0.909 1.205-1.409 0.379-0.515 0.795-0.985 1.25-1.409 0.455-0.439 0.833-0.659 1.136-0.659 0.212 0 0.424 0.053 0.636 0.159 0.227 0.106 0.5 0.273 0.818 0.5 0.318 0.212 0.508 0.341 0.568 0.386 0.379 0.227 0.78 0.462 1.205 0.705 0.439 0.242 0.924 0.508 1.455 0.795s0.94 0.515 1.227 0.682c1.061 0.53 1.636 0.932 1.727 1.205 0.045 0.106 0.068 0.265 0.068 0.477z"></path>
</svg>
