<!-- Generated by IcoMoon.io -->
<svg version="1.1" xmlns="http://www.w3.org/2000/svg" width="32" height="32" viewBox="0 0 32 32">
<title>Rocket-icon-av</title>
<path fill="#fff" d="M9.873 19.919c0.176 0.524-0.106 1.091-0.629 1.267-1.695 0.57-2.596 1.993-3.078 3.44-0.191 0.575-0.307 1.128-0.376 1.585 0.457-0.069 1.011-0.185 1.585-0.376 1.447-0.482 2.87-1.383 3.44-3.078 0.176-0.523 0.743-0.805 1.267-0.629s0.805 0.743 0.629 1.267c-0.855 2.542-2.97 3.76-4.704 4.338-0.876 0.292-1.696 0.436-2.295 0.508-0.301 0.036-0.549 0.054-0.726 0.064-0.088 0.005-0.159 0.007-0.21 0.008-0.025 0.001-0.045 0.001-0.060 0.001l-0.018 0h-0.009c-0 0-0.001 0-0.001-1-1 0-1-0-1-0.001v-0.003l0-0.006 0-0.018c0-0.015 0.001-0.035 0.001-0.060 0.001-0.050 0.004-0.121 0.008-0.209 0.009-0.177 0.028-0.425 0.064-0.726 0.072-0.599 0.216-1.419 0.508-2.295 0.577-1.734 1.795-3.849 4.338-4.704 0.523-0.176 1.091 0.106 1.267 0.629zM4.688 27.313h-1c0 0.552 0.448 1 1 1v-1z"></path>
<path fill="#fff" d="M26.474 5.527c0.167 1.161 0.231 4.018-2.694 6.942l-7.78 7.78-4.248-4.248 7.78-7.78c2.924-2.924 5.781-2.861 6.942-2.694zM26.764 3.548c-1.596-0.231-5.155-0.233-8.646 3.258l-8.488 8.488c-0.188 0.188-0.293 0.442-0.293 0.707s0.105 0.52 0.293 0.707l5.662 5.663c0.391 0.391 1.024 0.391 1.414 0l8.488-8.488c3.491-3.491 3.489-7.050 3.258-8.646-0.058-0.427-0.255-0.824-0.56-1.129s-0.701-0.502-1.129-0.56z"></path>
<path fill="#fff" d="M23.075 13.588c0.552 0 1 0.448 1 1v8.075l-0 0.014c-0.007 0.525-0.221 1.026-0.595 1.395l-4.036 4.048c-0.256 0.256-0.577 0.437-0.928 0.525s-0.72 0.079-1.066-0.027c-0.346-0.105-0.658-0.303-0.901-0.571s-0.408-0.597-0.479-0.952c-0-0 0 0 0 0l-1.050-5.237c-0.109-0.541 0.242-1.068 0.784-1.177s1.069 0.242 1.177 0.784l1.050 5.239 4.044-4.057v-8.061c0-0.552 0.448-1 1-1z"></path>
<path fill="#fff" d="M9.324 7.925l0.014-0h8.075c0.552 0 1 0.448 1 1s-0.448 1-1 1h-8.061l-0.008 0.008-0-0-4.047 4.036 5.238 1.050c0.541 0.109 0.892 0.636 0.784 1.177s-0.636 0.892-1.177 0.784l-5.236-1.050c-0-0-0.001-0-0.001-0-0.355-0.071-0.684-0.236-0.952-0.479s-0.466-0.555-0.571-0.901-0.114-0.715-0.027-1.066c0.088-0.351 0.269-0.672 0.525-0.928l0.002-0.002 4.047-4.034c0.369-0.374 0.87-0.588 1.395-0.595z"></path>
</svg>
