<!-- Generated by IcoMoon.io -->
<svg version="1.1" xmlns="http://www.w3.org/2000/svg" width="38" height="32" viewBox="0 0 38 32">
<title>twit-icon-avv</title>
<path fill="#fff" d="M34.066 8.031c1.484-1.113 2.82-2.449 3.859-4.008-1.336 0.594-2.895 1.039-4.453 1.188 1.633-0.965 2.82-2.449 3.414-4.305-1.484 0.891-3.191 1.559-4.899 1.93-1.484-1.559-3.488-2.449-5.715-2.449-4.305 0-7.793 3.488-7.793 7.793 0 0.594 0.074 1.188 0.223 1.781-6.457-0.371-12.246-3.488-16.105-8.164-0.668 1.113-1.039 2.449-1.039 3.934 0 2.672 1.336 5.047 3.488 6.457-1.262-0.074-2.523-0.371-3.563-0.965v0.074c0 3.785 2.672 6.902 6.234 7.645-0.594 0.148-1.336 0.297-2.004 0.297-0.52 0-0.965-0.074-1.484-0.148 0.965 3.117 3.859 5.344 7.273 5.418-2.672 2.078-6.012 3.34-9.648 3.34-0.668 0-1.262-0.074-1.855-0.148 3.414 2.227 7.496 3.488 11.949 3.488 14.324 0 22.117-11.801 22.117-22.117 0-0.371 0-0.668 0-1.039z"></path>
</svg>
