<!-- Generated by IcoMoon.io -->
<svg version="1.1" xmlns="http://www.w3.org/2000/svg" width="30" height="32" viewBox="0 0 30 32">
<title>unnown-icon-av</title>
<path fill="#fff" d="M15.2 1.075c-8.134 0-14.725 6.65-14.725 14.725 0 8.134 6.591 14.725 14.725 14.725 8.075 0 14.725-6.591 14.725-14.725 0-8.075-6.65-14.725-14.725-14.725zM24.878 7.903c1.781 2.138 2.85 4.869 2.85 7.838-0.416-0.119-4.572-0.95-8.728-0.416-0.356-0.831-0.653-1.544-1.128-2.494 4.691-1.9 6.769-4.572 7.006-4.928zM23.512 6.419c-0.237 0.356-2.137 2.909-6.591 4.572-2.078-3.8-4.334-6.888-4.691-7.362 3.978-0.95 8.194 0.059 11.281 2.791zM9.797 4.459c0.356 0.475 2.613 3.563 4.691 7.303-5.878 1.544-11.044 1.544-11.637 1.484 0.831-3.859 3.444-7.125 6.947-8.787zM2.612 15.859c0-0.119 0-0.238 0-0.416 0.534 0.059 6.65 0.119 12.884-1.781 0.416 0.713 0.713 1.425 1.069 2.138-4.572 1.306-8.728 4.988-10.747 8.431-2.019-2.197-3.206-5.166-3.206-8.372zM7.422 25.775c1.366-2.672 4.928-6.175 9.975-7.897 1.781 4.572 2.494 8.431 2.672 9.559-4.038 1.722-8.906 1.247-12.647-1.662zM22.206 26.25c-0.119-0.712-0.831-4.394-2.434-8.966 3.919-0.594 7.363 0.416 7.838 0.534-0.594 3.503-2.613 6.531-5.403 8.431z"></path>
</svg>
