<!-- Generated by IcoMoon.io -->
<svg version="1.1" xmlns="http://www.w3.org/2000/svg" width="33" height="32" viewBox="0 0 33 32">
<title>Youtube-av</title>
<path fill="#858584" d="M13.821 11.118c0.325-0.174 0.72-0.155 1.027 0.050l6 4c0.278 0.185 0.445 0.498 0.445 0.832s-0.167 0.647-0.445 0.832l-6 4c-0.307 0.204-0.701 0.224-1.027 0.050s-0.528-0.513-0.528-0.882v-8c0-0.369 0.203-0.708 0.528-0.882zM15.293 13.868v4.263l3.197-2.131-3.197-2.131z"></path>
<path fill="#858584" d="M16.291 5.050l0.083-0c0.055 0 0.134 0.001 0.236 0.002 0.204 0.002 0.497 0.007 0.863 0.018 0.729 0.022 1.746 0.068 2.897 0.165 2.276 0.192 5.174 0.591 7.406 1.444l0.015 0.006c0.438 0.175 0.829 0.451 1.141 0.806s0.536 0.777 0.655 1.234l0.001 0.004c0.311 1.219 0.706 3.478 0.706 7.273s-0.395 6.054-0.706 7.273l-0.001 0.004c-0.119 0.457-0.343 0.88-0.655 1.234s-0.703 0.63-1.141 0.806l-0.015 0.006c-2.231 0.852-5.129 1.251-7.406 1.444-1.151 0.097-2.168 0.143-2.897 0.165-0.365 0.011-0.659 0.016-0.863 0.018-0.102 0.001-0.181 0.002-0.236 0.002h-0.162c-0.055-0-0.134-0-0.236-0.002-0.204-0.002-0.498-0.007-0.863-0.018-0.729-0.022-1.746-0.068-2.897-0.165-2.276-0.192-5.174-0.591-7.406-1.444l-0.015-0.006c-0.438-0.175-0.829-0.451-1.141-0.806s-0.536-0.777-0.655-1.234l-0.001-0.004c-0.311-1.219-0.706-3.478-0.706-7.273s0.395-6.054 0.706-7.273l0.001-0.004c0.119-0.457 0.343-0.88 0.655-1.234s0.703-0.63 1.141-0.806l0.015-0.006c2.231-0.853 5.129-1.251 7.406-1.444 1.151-0.097 2.167-0.143 2.897-0.165 0.365-0.011 0.659-0.016 0.863-0.018 0.102-0.001 0.181-0.001 0.236-0.002l0.080 0zM16.288 24.95l0.011-0 0.003 0h0.068c0.049-0 0.123-0 0.219-0.002 0.192-0.002 0.473-0.007 0.824-0.017 0.702-0.021 1.682-0.066 2.789-0.159 2.236-0.189 4.896-0.57 6.852-1.316 0.145-0.059 0.274-0.151 0.377-0.268 0.105-0.119 0.18-0.26 0.22-0.413 0.264-1.032 0.643-3.122 0.643-6.775s-0.38-5.743-0.643-6.775c-0.040-0.153-0.115-0.294-0.22-0.413-0.103-0.117-0.233-0.209-0.377-0.268-1.956-0.745-4.616-1.127-6.852-1.316-1.107-0.093-2.086-0.138-2.789-0.159-0.351-0.011-0.632-0.015-0.824-0.017-0.096-0.001-0.17-0.001-0.219-0.002l-0.153 0c-0.049 0-0.123 0-0.219 0.002-0.192 0.002-0.473 0.007-0.824 0.017-0.702 0.021-1.682 0.066-2.789 0.159-2.236 0.189-4.896 0.57-6.852 1.316-0.145 0.059-0.274 0.151-0.377 0.268-0.104 0.119-0.18 0.26-0.22 0.413-0.264 1.032-0.643 3.122-0.643 6.775s0.38 5.743 0.643 6.775c0.040 0.153 0.115 0.294 0.22 0.413 0.103 0.117 0.233 0.209 0.377 0.268 1.955 0.745 4.616 1.127 6.852 1.316 1.107 0.093 2.086 0.138 2.789 0.159 0.351 0.011 0.632 0.015 0.824 0.017 0.096 0.001 0.17 0.001 0.219 0.002h0.071z"></path>
</svg>
